<mxfile host="app.diagrams.net" agent="Mozilla/5.0 (Windows NT 10.0; Win64; x64) AppleWebKit/537.36 (KHTML, like Gecko) Chrome/136.0.0.0 Safari/537.36" version="27.0.2">
  <diagram name="Page-1" id="t_fkH8_up-WrKKCvcmen">
    <mxGraphModel dx="872" dy="431" grid="1" gridSize="10" guides="1" tooltips="1" connect="1" arrows="1" fold="1" page="1" pageScale="1" pageWidth="827" pageHeight="1169" math="0" shadow="0">
      <root>
        <mxCell id="0" />
        <mxCell id="1" parent="0" />
        <mxCell id="yrt_GKD_OYoaSBvD1sqa-3" value="&lt;p data-pm-slice=&quot;1 1 [&amp;quot;list&amp;quot;,{&amp;quot;spread&amp;quot;:true,&amp;quot;start&amp;quot;:1400,&amp;quot;end&amp;quot;:3936},&amp;quot;regular_list_item&amp;quot;,{&amp;quot;start&amp;quot;:1400,&amp;quot;end&amp;quot;:1918},&amp;quot;list&amp;quot;,{&amp;quot;spread&amp;quot;:false,&amp;quot;start&amp;quot;:1439,&amp;quot;end&amp;quot;:1918},&amp;quot;regular_list_item&amp;quot;,{&amp;quot;start&amp;quot;:1439,&amp;quot;end&amp;quot;:1569}]&quot;&gt;&lt;code&gt;&lt;b&gt;AccommodationManager&lt;/b&gt;&lt;/code&gt;&lt;/p&gt;" style="swimlane;fontStyle=0;childLayout=stackLayout;horizontal=1;startSize=30;horizontalStack=0;resizeParent=1;resizeParentMax=0;resizeLast=0;collapsible=1;marginBottom=0;whiteSpace=wrap;html=1;" vertex="1" parent="1">
          <mxGeometry x="190" y="400" width="170" height="140" as="geometry" />
        </mxCell>
        <mxCell id="yrt_GKD_OYoaSBvD1sqa-4" value="&lt;p data-pm-slice=&quot;1 1 [&amp;quot;list&amp;quot;,{&amp;quot;spread&amp;quot;:true,&amp;quot;start&amp;quot;:1400,&amp;quot;end&amp;quot;:3936},&amp;quot;regular_list_item&amp;quot;,{&amp;quot;start&amp;quot;:1400,&amp;quot;end&amp;quot;:1918},&amp;quot;list&amp;quot;,{&amp;quot;spread&amp;quot;:false,&amp;quot;start&amp;quot;:1439,&amp;quot;end&amp;quot;:1918},&amp;quot;regular_list_item&amp;quot;,{&amp;quot;start&amp;quot;:1439,&amp;quot;end&amp;quot;:1569},&amp;quot;list&amp;quot;,{&amp;quot;spread&amp;quot;:false,&amp;quot;start&amp;quot;:1477,&amp;quot;end&amp;quot;:1569},&amp;quot;regular_list_item&amp;quot;,{&amp;quot;start&amp;quot;:1477,&amp;quot;end&amp;quot;:1569}]&quot;&gt;&lt;code&gt;+ events: BookingEventManager&lt;/code&gt;&lt;/p&gt;" style="text;strokeColor=default;fillColor=none;align=left;verticalAlign=middle;spacingLeft=4;spacingRight=4;overflow=hidden;points=[[0,0.5],[1,0.5]];portConstraint=eastwest;rotatable=0;whiteSpace=wrap;html=1;strokeWidth=1;" vertex="1" parent="yrt_GKD_OYoaSBvD1sqa-3">
          <mxGeometry y="30" width="170" height="50" as="geometry" />
        </mxCell>
        <mxCell id="yrt_GKD_OYoaSBvD1sqa-5" value="&lt;p data-pm-slice=&quot;1 1 [&amp;quot;list&amp;quot;,{&amp;quot;spread&amp;quot;:true,&amp;quot;start&amp;quot;:1400,&amp;quot;end&amp;quot;:3936},&amp;quot;regular_list_item&amp;quot;,{&amp;quot;start&amp;quot;:1400,&amp;quot;end&amp;quot;:1918},&amp;quot;list&amp;quot;,{&amp;quot;spread&amp;quot;:false,&amp;quot;start&amp;quot;:1439,&amp;quot;end&amp;quot;:1918},&amp;quot;regular_list_item&amp;quot;,{&amp;quot;start&amp;quot;:1439,&amp;quot;end&amp;quot;:1569},&amp;quot;list&amp;quot;,{&amp;quot;spread&amp;quot;:false,&amp;quot;start&amp;quot;:1477,&amp;quot;end&amp;quot;:1569},&amp;quot;regular_list_item&amp;quot;,{&amp;quot;start&amp;quot;:1477,&amp;quot;end&amp;quot;:1569}]&quot;&gt;&lt;code&gt;+addAccommodation()&lt;/code&gt;&lt;/p&gt;" style="text;strokeColor=none;fillColor=none;align=left;verticalAlign=middle;spacingLeft=4;spacingRight=4;overflow=hidden;points=[[0,0.5],[1,0.5]];portConstraint=eastwest;rotatable=0;whiteSpace=wrap;html=1;" vertex="1" parent="yrt_GKD_OYoaSBvD1sqa-3">
          <mxGeometry y="80" width="170" height="30" as="geometry" />
        </mxCell>
        <mxCell id="yrt_GKD_OYoaSBvD1sqa-6" value="&lt;p data-pm-slice=&quot;1 1 [&amp;quot;list&amp;quot;,{&amp;quot;spread&amp;quot;:true,&amp;quot;start&amp;quot;:1400,&amp;quot;end&amp;quot;:3936},&amp;quot;regular_list_item&amp;quot;,{&amp;quot;start&amp;quot;:1400,&amp;quot;end&amp;quot;:1918},&amp;quot;list&amp;quot;,{&amp;quot;spread&amp;quot;:false,&amp;quot;start&amp;quot;:1439,&amp;quot;end&amp;quot;:1918},&amp;quot;regular_list_item&amp;quot;,{&amp;quot;start&amp;quot;:1439,&amp;quot;end&amp;quot;:1569},&amp;quot;list&amp;quot;,{&amp;quot;spread&amp;quot;:false,&amp;quot;start&amp;quot;:1477,&amp;quot;end&amp;quot;:1569},&amp;quot;regular_list_item&amp;quot;,{&amp;quot;start&amp;quot;:1477,&amp;quot;end&amp;quot;:1569}]&quot;&gt;&lt;code&gt;+updateAccommodation()&lt;/code&gt;&lt;/p&gt;" style="text;strokeColor=none;fillColor=none;align=left;verticalAlign=middle;spacingLeft=4;spacingRight=4;overflow=hidden;points=[[0,0.5],[1,0.5]];portConstraint=eastwest;rotatable=0;whiteSpace=wrap;html=1;" vertex="1" parent="yrt_GKD_OYoaSBvD1sqa-3">
          <mxGeometry y="110" width="170" height="30" as="geometry" />
        </mxCell>
        <mxCell id="yrt_GKD_OYoaSBvD1sqa-8" value="" style="endArrow=diamondThin;endFill=0;endSize=24;html=1;rounded=0;exitX=-0.012;exitY=0.78;exitDx=0;exitDy=0;exitPerimeter=0;" edge="1" parent="1" source="yrt_GKD_OYoaSBvD1sqa-10">
          <mxGeometry width="160" relative="1" as="geometry">
            <mxPoint x="460" y="460" as="sourcePoint" />
            <mxPoint x="360" y="460" as="targetPoint" />
          </mxGeometry>
        </mxCell>
        <mxCell id="yrt_GKD_OYoaSBvD1sqa-9" value="&lt;p data-pm-slice=&quot;1 1 [&amp;quot;list&amp;quot;,{&amp;quot;spread&amp;quot;:true,&amp;quot;start&amp;quot;:1400,&amp;quot;end&amp;quot;:3936},&amp;quot;regular_list_item&amp;quot;,{&amp;quot;start&amp;quot;:1400,&amp;quot;end&amp;quot;:1918},&amp;quot;list&amp;quot;,{&amp;quot;spread&amp;quot;:false,&amp;quot;start&amp;quot;:1439,&amp;quot;end&amp;quot;:1918},&amp;quot;regular_list_item&amp;quot;,{&amp;quot;start&amp;quot;:1572,&amp;quot;end&amp;quot;:1740}]&quot;&gt;&lt;code&gt;&lt;b&gt;BookingEventManager&lt;/b&gt;&lt;/code&gt;&lt;/p&gt;" style="swimlane;fontStyle=0;childLayout=stackLayout;horizontal=1;startSize=30;horizontalStack=0;resizeParent=1;resizeParentMax=0;resizeLast=0;collapsible=1;marginBottom=0;whiteSpace=wrap;html=1;" vertex="1" parent="1">
          <mxGeometry x="450" y="390" width="170" height="220" as="geometry" />
        </mxCell>
        <mxCell id="yrt_GKD_OYoaSBvD1sqa-10" value="&lt;p data-pm-slice=&quot;1 1 [&amp;quot;list&amp;quot;,{&amp;quot;spread&amp;quot;:true,&amp;quot;start&amp;quot;:1400,&amp;quot;end&amp;quot;:3936},&amp;quot;regular_list_item&amp;quot;,{&amp;quot;start&amp;quot;:1400,&amp;quot;end&amp;quot;:1918},&amp;quot;list&amp;quot;,{&amp;quot;spread&amp;quot;:false,&amp;quot;start&amp;quot;:1439,&amp;quot;end&amp;quot;:1918},&amp;quot;regular_list_item&amp;quot;,{&amp;quot;start&amp;quot;:1572,&amp;quot;end&amp;quot;:1740},&amp;quot;list&amp;quot;,{&amp;quot;spread&amp;quot;:false,&amp;quot;start&amp;quot;:1614,&amp;quot;end&amp;quot;:1740},&amp;quot;regular_list_item&amp;quot;,{&amp;quot;start&amp;quot;:1614,&amp;quot;end&amp;quot;:1740}]&quot;&gt;&lt;code&gt;+ listeners&lt;/code&gt;&lt;/p&gt;" style="text;strokeColor=default;fillColor=none;align=left;verticalAlign=middle;spacingLeft=4;spacingRight=4;overflow=hidden;points=[[0,0.5],[1,0.5]];portConstraint=eastwest;rotatable=0;whiteSpace=wrap;html=1;strokeWidth=1;" vertex="1" parent="yrt_GKD_OYoaSBvD1sqa-9">
          <mxGeometry y="30" width="170" height="50" as="geometry" />
        </mxCell>
        <mxCell id="yrt_GKD_OYoaSBvD1sqa-11" value="&lt;p data-pm-slice=&quot;1 1 [&amp;quot;list&amp;quot;,{&amp;quot;spread&amp;quot;:true,&amp;quot;start&amp;quot;:1400,&amp;quot;end&amp;quot;:3936},&amp;quot;regular_list_item&amp;quot;,{&amp;quot;start&amp;quot;:1400,&amp;quot;end&amp;quot;:1918},&amp;quot;list&amp;quot;,{&amp;quot;spread&amp;quot;:false,&amp;quot;start&amp;quot;:1439,&amp;quot;end&amp;quot;:1918},&amp;quot;regular_list_item&amp;quot;,{&amp;quot;start&amp;quot;:1572,&amp;quot;end&amp;quot;:1740},&amp;quot;list&amp;quot;,{&amp;quot;spread&amp;quot;:false,&amp;quot;start&amp;quot;:1614,&amp;quot;end&amp;quot;:1740},&amp;quot;regular_list_item&amp;quot;,{&amp;quot;start&amp;quot;:1614,&amp;quot;end&amp;quot;:1740}]&quot;&gt;&lt;code&gt;+ subscribe(eventType, listener)&lt;/code&gt;&lt;/p&gt;" style="text;strokeColor=none;fillColor=none;align=left;verticalAlign=middle;spacingLeft=4;spacingRight=4;overflow=hidden;points=[[0,0.5],[1,0.5]];portConstraint=eastwest;rotatable=0;whiteSpace=wrap;html=1;" vertex="1" parent="yrt_GKD_OYoaSBvD1sqa-9">
          <mxGeometry y="80" width="170" height="50" as="geometry" />
        </mxCell>
        <mxCell id="yrt_GKD_OYoaSBvD1sqa-12" value="&lt;p data-pm-slice=&quot;1 1 [&amp;quot;list&amp;quot;,{&amp;quot;spread&amp;quot;:true,&amp;quot;start&amp;quot;:1400,&amp;quot;end&amp;quot;:3936},&amp;quot;regular_list_item&amp;quot;,{&amp;quot;start&amp;quot;:1400,&amp;quot;end&amp;quot;:1918},&amp;quot;list&amp;quot;,{&amp;quot;spread&amp;quot;:false,&amp;quot;start&amp;quot;:1439,&amp;quot;end&amp;quot;:1918},&amp;quot;regular_list_item&amp;quot;,{&amp;quot;start&amp;quot;:1572,&amp;quot;end&amp;quot;:1740},&amp;quot;list&amp;quot;,{&amp;quot;spread&amp;quot;:false,&amp;quot;start&amp;quot;:1614,&amp;quot;end&amp;quot;:1740},&amp;quot;regular_list_item&amp;quot;,{&amp;quot;start&amp;quot;:1614,&amp;quot;end&amp;quot;:1740}]&quot;&gt;&lt;code&gt;+ unsubscribe(eventType, listener)&lt;/code&gt;&lt;/p&gt;&lt;p data-pm-slice=&quot;1 1 [&amp;quot;list&amp;quot;,{&amp;quot;spread&amp;quot;:true,&amp;quot;start&amp;quot;:1400,&amp;quot;end&amp;quot;:3936},&amp;quot;regular_list_item&amp;quot;,{&amp;quot;start&amp;quot;:1400,&amp;quot;end&amp;quot;:1918},&amp;quot;list&amp;quot;,{&amp;quot;spread&amp;quot;:false,&amp;quot;start&amp;quot;:1439,&amp;quot;end&amp;quot;:1918},&amp;quot;regular_list_item&amp;quot;,{&amp;quot;start&amp;quot;:1572,&amp;quot;end&amp;quot;:1740},&amp;quot;list&amp;quot;,{&amp;quot;spread&amp;quot;:false,&amp;quot;start&amp;quot;:1614,&amp;quot;end&amp;quot;:1740},&amp;quot;regular_list_item&amp;quot;,{&amp;quot;start&amp;quot;:1614,&amp;quot;end&amp;quot;:1740}]&quot;&gt;&lt;code&gt;+ notify(eventType, data)&lt;/code&gt;&lt;/p&gt;" style="text;strokeColor=none;fillColor=none;align=left;verticalAlign=middle;spacingLeft=4;spacingRight=4;overflow=hidden;points=[[0,0.5],[1,0.5]];portConstraint=eastwest;rotatable=0;whiteSpace=wrap;html=1;" vertex="1" parent="yrt_GKD_OYoaSBvD1sqa-9">
          <mxGeometry y="130" width="170" height="90" as="geometry" />
        </mxCell>
        <mxCell id="yrt_GKD_OYoaSBvD1sqa-13" value="" style="endArrow=diamondThin;endFill=0;endSize=24;html=1;rounded=0;" edge="1" parent="1">
          <mxGeometry width="160" relative="1" as="geometry">
            <mxPoint x="535" y="680" as="sourcePoint" />
            <mxPoint x="534.5" y="610" as="targetPoint" />
          </mxGeometry>
        </mxCell>
        <mxCell id="yrt_GKD_OYoaSBvD1sqa-14" value="«interface»&lt;br&gt;&lt;p data-pm-slice=&quot;1 1 [&amp;quot;list&amp;quot;,{&amp;quot;spread&amp;quot;:true,&amp;quot;start&amp;quot;:1400,&amp;quot;end&amp;quot;:3936},&amp;quot;regular_list_item&amp;quot;,{&amp;quot;start&amp;quot;:1400,&amp;quot;end&amp;quot;:1918},&amp;quot;list&amp;quot;,{&amp;quot;spread&amp;quot;:false,&amp;quot;start&amp;quot;:1439,&amp;quot;end&amp;quot;:1918},&amp;quot;regular_list_item&amp;quot;,{&amp;quot;start&amp;quot;:1743,&amp;quot;end&amp;quot;:1830}]&quot;&gt;&lt;code&gt;&lt;b&gt;AccommodationEventListener&lt;/b&gt;&lt;/code&gt;&lt;/p&gt;" style="html=1;whiteSpace=wrap;" vertex="1" parent="1">
          <mxGeometry x="445" y="680" width="185" height="60" as="geometry" />
        </mxCell>
        <mxCell id="yrt_GKD_OYoaSBvD1sqa-16" value="&lt;p data-pm-slice=&quot;1 1 [&amp;quot;list&amp;quot;,{&amp;quot;spread&amp;quot;:true,&amp;quot;start&amp;quot;:1400,&amp;quot;end&amp;quot;:3936},&amp;quot;regular_list_item&amp;quot;,{&amp;quot;start&amp;quot;:1400,&amp;quot;end&amp;quot;:1918},&amp;quot;list&amp;quot;,{&amp;quot;spread&amp;quot;:false,&amp;quot;start&amp;quot;:1439,&amp;quot;end&amp;quot;:1918},&amp;quot;regular_list_item&amp;quot;,{&amp;quot;start&amp;quot;:1743,&amp;quot;end&amp;quot;:1830},&amp;quot;list&amp;quot;,{&amp;quot;spread&amp;quot;:false,&amp;quot;start&amp;quot;:1804,&amp;quot;end&amp;quot;:1830},&amp;quot;regular_list_item&amp;quot;,{&amp;quot;start&amp;quot;:1804,&amp;quot;end&amp;quot;:1830}]&quot;&gt;&lt;code&gt;+ update(data)&lt;/code&gt;&lt;/p&gt;" style="html=1;whiteSpace=wrap;" vertex="1" parent="1">
          <mxGeometry x="445" y="740" width="185" height="50" as="geometry" />
        </mxCell>
        <mxCell id="yrt_GKD_OYoaSBvD1sqa-18" value="" style="endArrow=classic;html=1;rounded=0;dashed=1;entryX=0.465;entryY=0.94;entryDx=0;entryDy=0;entryPerimeter=0;" edge="1" parent="1" target="yrt_GKD_OYoaSBvD1sqa-16">
          <mxGeometry width="50" height="50" relative="1" as="geometry">
            <mxPoint x="531" y="830" as="sourcePoint" />
            <mxPoint x="540" y="800" as="targetPoint" />
          </mxGeometry>
        </mxCell>
        <mxCell id="yrt_GKD_OYoaSBvD1sqa-20" value="" style="endArrow=none;html=1;rounded=0;dashed=1;" edge="1" parent="1">
          <mxGeometry width="50" height="50" relative="1" as="geometry">
            <mxPoint x="445" y="830" as="sourcePoint" />
            <mxPoint x="535" y="830" as="targetPoint" />
          </mxGeometry>
        </mxCell>
        <mxCell id="yrt_GKD_OYoaSBvD1sqa-21" value="" style="endArrow=none;html=1;rounded=0;dashed=1;" edge="1" parent="1">
          <mxGeometry width="50" height="50" relative="1" as="geometry">
            <mxPoint x="445" y="870" as="sourcePoint" />
            <mxPoint x="445" y="830" as="targetPoint" />
          </mxGeometry>
        </mxCell>
        <mxCell id="yrt_GKD_OYoaSBvD1sqa-22" value="" style="endArrow=none;html=1;rounded=0;dashed=1;" edge="1" parent="1">
          <mxGeometry width="50" height="50" relative="1" as="geometry">
            <mxPoint x="530" y="830" as="sourcePoint" />
            <mxPoint x="620" y="830" as="targetPoint" />
          </mxGeometry>
        </mxCell>
        <mxCell id="yrt_GKD_OYoaSBvD1sqa-23" value="" style="endArrow=none;html=1;rounded=0;dashed=1;" edge="1" parent="1">
          <mxGeometry width="50" height="50" relative="1" as="geometry">
            <mxPoint x="619" y="870" as="sourcePoint" />
            <mxPoint x="619" y="830" as="targetPoint" />
          </mxGeometry>
        </mxCell>
        <mxCell id="yrt_GKD_OYoaSBvD1sqa-24" value="&lt;p data-pm-slice=&quot;1 1 [&amp;quot;list&amp;quot;,{&amp;quot;spread&amp;quot;:true,&amp;quot;start&amp;quot;:1400,&amp;quot;end&amp;quot;:3936},&amp;quot;regular_list_item&amp;quot;,{&amp;quot;start&amp;quot;:1400,&amp;quot;end&amp;quot;:1918},&amp;quot;list&amp;quot;,{&amp;quot;spread&amp;quot;:false,&amp;quot;start&amp;quot;:1439,&amp;quot;end&amp;quot;:1918},&amp;quot;regular_list_item&amp;quot;,{&amp;quot;start&amp;quot;:1833,&amp;quot;end&amp;quot;:1918}]&quot;&gt;&lt;code&gt;&lt;font style=&quot;font-size: 12px;&quot;&gt;&lt;b&gt;AvailabilityListener&lt;/b&gt;&lt;/font&gt;&lt;/code&gt;&lt;/p&gt;" style="swimlane;fontStyle=0;align=center;verticalAlign=top;childLayout=stackLayout;horizontal=1;startSize=40;horizontalStack=0;resizeParent=1;resizeParentMax=0;resizeLast=0;collapsible=1;marginBottom=0;whiteSpace=wrap;html=1;fontSize=9;" vertex="1" parent="1">
          <mxGeometry x="370" y="870" width="160" height="80" as="geometry" />
        </mxCell>
        <mxCell id="yrt_GKD_OYoaSBvD1sqa-25" value="&lt;p data-pm-slice=&quot;1 1 [&amp;quot;list&amp;quot;,{&amp;quot;spread&amp;quot;:true,&amp;quot;start&amp;quot;:1400,&amp;quot;end&amp;quot;:3936},&amp;quot;regular_list_item&amp;quot;,{&amp;quot;start&amp;quot;:1400,&amp;quot;end&amp;quot;:1918},&amp;quot;list&amp;quot;,{&amp;quot;spread&amp;quot;:false,&amp;quot;start&amp;quot;:1439,&amp;quot;end&amp;quot;:1918},&amp;quot;regular_list_item&amp;quot;,{&amp;quot;start&amp;quot;:1833,&amp;quot;end&amp;quot;:1918},&amp;quot;list&amp;quot;,{&amp;quot;spread&amp;quot;:false,&amp;quot;start&amp;quot;:1892,&amp;quot;end&amp;quot;:1918},&amp;quot;regular_list_item&amp;quot;,{&amp;quot;start&amp;quot;:1892,&amp;quot;end&amp;quot;:1918}]&quot;&gt;&lt;code&gt;+ update(data)&lt;/code&gt;&lt;/p&gt;" style="text;strokeColor=none;fillColor=none;align=left;verticalAlign=top;spacingLeft=4;spacingRight=4;overflow=hidden;rotatable=0;points=[[0,0.5],[1,0.5]];portConstraint=eastwest;whiteSpace=wrap;html=1;fontStyle=0" vertex="1" parent="yrt_GKD_OYoaSBvD1sqa-24">
          <mxGeometry y="40" width="160" height="40" as="geometry" />
        </mxCell>
        <mxCell id="yrt_GKD_OYoaSBvD1sqa-28" value="&lt;p data-pm-slice=&quot;1 1 [&amp;quot;list&amp;quot;,{&amp;quot;spread&amp;quot;:true,&amp;quot;start&amp;quot;:1400,&amp;quot;end&amp;quot;:3936},&amp;quot;regular_list_item&amp;quot;,{&amp;quot;start&amp;quot;:1400,&amp;quot;end&amp;quot;:1918},&amp;quot;list&amp;quot;,{&amp;quot;spread&amp;quot;:false,&amp;quot;start&amp;quot;:1439,&amp;quot;end&amp;quot;:1918},&amp;quot;regular_list_item&amp;quot;,{&amp;quot;start&amp;quot;:1833,&amp;quot;end&amp;quot;:1918}]&quot;&gt;&lt;code&gt;&lt;font style=&quot;font-size: 12px;&quot;&gt;BookingListener&lt;/font&gt;&lt;/code&gt;&lt;/p&gt;" style="swimlane;fontStyle=1;align=center;verticalAlign=top;childLayout=stackLayout;horizontal=1;startSize=40;horizontalStack=0;resizeParent=1;resizeParentMax=0;resizeLast=0;collapsible=1;marginBottom=0;whiteSpace=wrap;html=1;fontSize=9;" vertex="1" parent="1">
          <mxGeometry x="550" y="870" width="160" height="80" as="geometry" />
        </mxCell>
        <mxCell id="yrt_GKD_OYoaSBvD1sqa-29" value="&lt;p data-pm-slice=&quot;1 1 [&amp;quot;list&amp;quot;,{&amp;quot;spread&amp;quot;:true,&amp;quot;start&amp;quot;:1400,&amp;quot;end&amp;quot;:3936},&amp;quot;regular_list_item&amp;quot;,{&amp;quot;start&amp;quot;:1400,&amp;quot;end&amp;quot;:1918},&amp;quot;list&amp;quot;,{&amp;quot;spread&amp;quot;:false,&amp;quot;start&amp;quot;:1439,&amp;quot;end&amp;quot;:1918},&amp;quot;regular_list_item&amp;quot;,{&amp;quot;start&amp;quot;:1833,&amp;quot;end&amp;quot;:1918},&amp;quot;list&amp;quot;,{&amp;quot;spread&amp;quot;:false,&amp;quot;start&amp;quot;:1892,&amp;quot;end&amp;quot;:1918},&amp;quot;regular_list_item&amp;quot;,{&amp;quot;start&amp;quot;:1892,&amp;quot;end&amp;quot;:1918}]&quot;&gt;&lt;code&gt;+ update(data)&lt;/code&gt;&lt;/p&gt;" style="text;strokeColor=none;fillColor=none;align=left;verticalAlign=top;spacingLeft=4;spacingRight=4;overflow=hidden;rotatable=0;points=[[0,0.5],[1,0.5]];portConstraint=eastwest;whiteSpace=wrap;html=1;" vertex="1" parent="yrt_GKD_OYoaSBvD1sqa-28">
          <mxGeometry y="40" width="160" height="40" as="geometry" />
        </mxCell>
      </root>
    </mxGraphModel>
  </diagram>
</mxfile>
